<svg width="40" height="40" viewBox="0 0 40 40" fill="none" xmlns="http://www.w3.org/2000/svg">
<path d="M20 25C21.3888 25 22.5694 24.5139 23.5416 23.5417C24.5138 22.5695 25 21.3889 25 20C25 18.6111 24.5138 17.4306 23.5416 16.4584C22.5694 15.4861 21.3888 15 20 15C18.6111 15 17.4305 15.4861 16.4583 16.4584C15.4861 17.4306 15 18.6111 15 20C15 21.3889 15.4861 22.5695 16.4583 23.5417C17.4305 24.5139 18.6111 25 20 25ZM20 28.3334C17.6944 28.3334 15.7294 27.5206 14.105 25.895C12.4794 24.2706 11.6666 22.3056 11.6666 20C11.6666 17.6945 12.4794 15.7289 14.105 14.1034C15.7294 12.4789 17.6944 11.6667 20 11.6667C22.3055 11.6667 24.2711 12.4789 25.8966 14.1034C27.5211 15.7289 28.3333 17.6945 28.3333 20C28.3333 22.3056 27.5211 24.2706 25.8966 25.895C24.2711 27.5206 22.3055 28.3334 20 28.3334ZM3.33329 21.6667C2.86107 21.6667 2.46551 21.5067 2.14663 21.1867C1.82663 20.8678 1.66663 20.4722 1.66663 20C1.66663 19.5278 1.82663 19.1317 2.14663 18.8117C2.46551 18.4928 2.86107 18.3334 3.33329 18.3334H6.66663C7.13885 18.3334 7.53496 18.4928 7.85496 18.8117C8.17385 19.1317 8.33329 19.5278 8.33329 20C8.33329 20.4722 8.17385 20.8678 7.85496 21.1867C7.53496 21.5067 7.13885 21.6667 6.66663 21.6667H3.33329ZM33.3333 21.6667C32.8611 21.6667 32.4655 21.5067 32.1466 21.1867C31.8266 20.8678 31.6666 20.4722 31.6666 20C31.6666 19.5278 31.8266 19.1317 32.1466 18.8117C32.4655 18.4928 32.8611 18.3334 33.3333 18.3334H36.6666C37.1388 18.3334 37.5344 18.4928 37.8533 18.8117C38.1733 19.1317 38.3333 19.5278 38.3333 20C38.3333 20.4722 38.1733 20.8678 37.8533 21.1867C37.5344 21.5067 37.1388 21.6667 36.6666 21.6667H33.3333ZM20 8.33335C19.5277 8.33335 19.1322 8.17335 18.8133 7.85335C18.4933 7.53446 18.3333 7.13891 18.3333 6.66669V3.33335C18.3333 2.86113 18.4933 2.46502 18.8133 2.14502C19.1322 1.82613 19.5277 1.66669 20 1.66669C20.4722 1.66669 20.8683 1.82613 21.1883 2.14502C21.5072 2.46502 21.6666 2.86113 21.6666 3.33335V6.66669C21.6666 7.13891 21.5072 7.53446 21.1883 7.85335C20.8683 8.17335 20.4722 8.33335 20 8.33335ZM20 38.3334C19.5277 38.3334 19.1322 38.1734 18.8133 37.8534C18.4933 37.5345 18.3333 37.1389 18.3333 36.6667V33.3334C18.3333 32.8611 18.4933 32.4656 18.8133 32.1467C19.1322 31.8267 19.5277 31.6667 20 31.6667C20.4722 31.6667 20.8683 31.8267 21.1883 32.1467C21.5072 32.4656 21.6666 32.8611 21.6666 33.3334V36.6667C21.6666 37.1389 21.5072 37.5345 21.1883 37.8534C20.8683 38.1734 20.4722 38.3334 20 38.3334ZM9.41663 11.75L7.62496 10C7.29163 9.69446 7.13163 9.30558 7.14496 8.83335C7.1594 8.36113 7.3194 7.95835 7.62496 7.62502C7.95829 7.29169 8.36107 7.12502 8.83329 7.12502C9.30551 7.12502 9.6944 7.29169 9.99996 7.62502L11.75 9.41669C12.0555 9.75002 12.2083 10.1389 12.2083 10.5834C12.2083 11.0278 12.0555 11.4167 11.75 11.75C11.4444 12.0834 11.0627 12.2428 10.605 12.2284C10.1461 12.215 9.74996 12.0556 9.41663 11.75ZM30 32.375L28.25 30.5834C27.9444 30.25 27.7916 29.8545 27.7916 29.3967C27.7916 28.9378 27.9444 28.5556 28.25 28.25C28.5555 27.9167 28.9377 27.7572 29.3966 27.7717C29.8544 27.785 30.25 27.9445 30.5833 28.25L32.375 30C32.7083 30.3056 32.8683 30.6945 32.855 31.1667C32.8405 31.6389 32.6805 32.0417 32.375 32.375C32.0416 32.7083 31.6388 32.875 31.1666 32.875C30.6944 32.875 30.3055 32.7083 30 32.375ZM28.25 11.75C27.9166 11.4445 27.7572 11.0622 27.7716 10.6034C27.785 10.1456 27.9444 9.75002 28.25 9.41669L30 7.62502C30.3055 7.29169 30.6944 7.13169 31.1666 7.14502C31.6388 7.15946 32.0416 7.31946 32.375 7.62502C32.7083 7.95835 32.875 8.36113 32.875 8.83335C32.875 9.30558 32.7083 9.69446 32.375 10L30.5833 11.75C30.25 12.0556 29.8611 12.2084 29.4166 12.2084C28.9722 12.2084 28.5833 12.0556 28.25 11.75ZM7.62496 32.375C7.29163 32.0417 7.12496 31.6389 7.12496 31.1667C7.12496 30.6945 7.29163 30.3056 7.62496 30L9.41663 28.25C9.74996 27.9445 10.1461 27.7917 10.605 27.7917C11.0627 27.7917 11.4444 27.9445 11.75 28.25C12.0833 28.5556 12.2433 28.9378 12.23 29.3967C12.2155 29.8545 12.0555 30.25 11.75 30.5834L9.99996 32.375C9.6944 32.7083 9.30551 32.8678 8.83329 32.8533C8.36107 32.84 7.95829 32.6806 7.62496 32.375Z" fill="white"/>
</svg>
