<svg width="40" height="40" viewBox="0 0 40 40" fill="none" xmlns="http://www.w3.org/2000/svg">
<path d="M20 28.3334C17.6944 28.3334 15.7294 27.5206 14.105 25.895C12.4794 24.2706 11.6667 22.3056 11.6667 20C11.6667 17.6945 12.4794 15.7289 14.105 14.1034C15.7294 12.4789 17.6944 11.6667 20 11.6667C22.3056 11.6667 24.2711 12.4789 25.8967 14.1034C27.5211 15.7289 28.3333 17.6945 28.3333 20C28.3333 22.3056 27.5211 24.2706 25.8967 25.895C24.2711 27.5206 22.3056 28.3334 20 28.3334ZM3.33333 21.6667C2.86111 21.6667 2.46556 21.5067 2.14667 21.1867C1.82667 20.8678 1.66667 20.4722 1.66667 20C1.66667 19.5278 1.82667 19.1317 2.14667 18.8117C2.46556 18.4928 2.86111 18.3334 3.33333 18.3334H6.66667C7.13889 18.3334 7.535 18.4928 7.855 18.8117C8.17389 19.1317 8.33333 19.5278 8.33333 20C8.33333 20.4722 8.17389 20.8678 7.855 21.1867C7.535 21.5067 7.13889 21.6667 6.66667 21.6667H3.33333ZM33.3333 21.6667C32.8611 21.6667 32.4656 21.5067 32.1467 21.1867C31.8267 20.8678 31.6667 20.4722 31.6667 20C31.6667 19.5278 31.8267 19.1317 32.1467 18.8117C32.4656 18.4928 32.8611 18.3334 33.3333 18.3334H36.6667C37.1389 18.3334 37.5344 18.4928 37.8533 18.8117C38.1733 19.1317 38.3333 19.5278 38.3333 20C38.3333 20.4722 38.1733 20.8678 37.8533 21.1867C37.5344 21.5067 37.1389 21.6667 36.6667 21.6667H33.3333ZM20 8.33335C19.5278 8.33335 19.1322 8.17335 18.8133 7.85335C18.4933 7.53446 18.3333 7.13891 18.3333 6.66669V3.33335C18.3333 2.86113 18.4933 2.46502 18.8133 2.14502C19.1322 1.82613 19.5278 1.66669 20 1.66669C20.4722 1.66669 20.8683 1.82613 21.1883 2.14502C21.5072 2.46502 21.6667 2.86113 21.6667 3.33335V6.66669C21.6667 7.13891 21.5072 7.53446 21.1883 7.85335C20.8683 8.17335 20.4722 8.33335 20 8.33335ZM20 38.3334C19.5278 38.3334 19.1322 38.1734 18.8133 37.8534C18.4933 37.5345 18.3333 37.1389 18.3333 36.6667V33.3334C18.3333 32.8611 18.4933 32.4656 18.8133 32.1467C19.1322 31.8267 19.5278 31.6667 20 31.6667C20.4722 31.6667 20.8683 31.8267 21.1883 32.1467C21.5072 32.4656 21.6667 32.8611 21.6667 33.3334V36.6667C21.6667 37.1389 21.5072 37.5345 21.1883 37.8534C20.8683 38.1734 20.4722 38.3334 20 38.3334ZM9.41667 11.75L7.625 10C7.29167 9.69447 7.13167 9.30558 7.145 8.83335C7.15945 8.36113 7.31945 7.95835 7.625 7.62502C7.95833 7.29169 8.36111 7.12502 8.83334 7.12502C9.30556 7.12502 9.69445 7.29169 10 7.62502L11.75 9.41669C12.0556 9.75002 12.2083 10.1389 12.2083 10.5834C12.2083 11.0278 12.0556 11.4167 11.75 11.75C11.4444 12.0834 11.0628 12.2428 10.605 12.2284C10.1461 12.215 9.75 12.0556 9.41667 11.75ZM30 32.375L28.25 30.5834C27.9444 30.25 27.7917 29.8545 27.7917 29.3967C27.7917 28.9378 27.9444 28.5556 28.25 28.25C28.5556 27.9167 28.9378 27.7572 29.3967 27.7717C29.8544 27.785 30.25 27.9445 30.5833 28.25L32.375 30C32.7083 30.3056 32.8683 30.6945 32.855 31.1667C32.8406 31.6389 32.6806 32.0417 32.375 32.375C32.0417 32.7084 31.6389 32.875 31.1667 32.875C30.6944 32.875 30.3056 32.7084 30 32.375ZM28.25 11.75C27.9167 11.4445 27.7572 11.0622 27.7717 10.6034C27.785 10.1456 27.9444 9.75002 28.25 9.41669L30 7.62502C30.3056 7.29169 30.6944 7.13169 31.1667 7.14502C31.6389 7.15947 32.0417 7.31946 32.375 7.62502C32.7083 7.95835 32.875 8.36113 32.875 8.83335C32.875 9.30558 32.7083 9.69447 32.375 10L30.5833 11.75C30.25 12.0556 29.8611 12.2084 29.4167 12.2084C28.9722 12.2084 28.5833 12.0556 28.25 11.75ZM7.625 32.375C7.29167 32.0417 7.125 31.6389 7.125 31.1667C7.125 30.6945 7.29167 30.3056 7.625 30L9.41667 28.25C9.75 27.9445 10.1461 27.7917 10.605 27.7917C11.0628 27.7917 11.4444 27.9445 11.75 28.25C12.0833 28.5556 12.2433 28.9378 12.23 29.3967C12.2156 29.8545 12.0556 30.25 11.75 30.5834L10 32.375C9.69445 32.7084 9.30556 32.8678 8.83334 32.8534C8.36111 32.84 7.95833 32.6806 7.625 32.375Z" fill="black"/>
</svg>
